<svg height="160" preserveAspectRatio="xMidYMid" viewBox="0 0 218 160" width="218" xmlns="http://www.w3.org/2000/svg"><g fill-rule="evenodd"><path d="m19.024 129.265s5.189 34.661 39.416 29.492c34.224-5.175 128.087-30.008 150.384-106.579 7.78-36.74-35.776-42.949-49.261-29.234-13.482 13.706-27.191 40.38-47.712 51.995-22.625 12.807-99.826 17.591-92.827 54.326z" fill="#ff3a2f"/><path d="m28.08 135.897c-1.701 0-3.217-1.206-3.547-2.939-4.6-24.14 27.146-32.721 52.652-39.614 9.664-2.611 18.79-5.078 23.739-7.879 1.739-.984 3.942-.374 4.926 1.364.983 1.739.373 3.943-1.365 4.928-5.742 3.25-14.859 5.714-25.413 8.566-22.626 6.114-50.784 13.725-47.437 31.282.374 1.961-.914 3.854-2.875 4.227-.227.045-.456.065-.68.065z" fill="#fff"/><path d="m179.366 16.262c9.602 5.224 16.211 15.491 12.77 31.743-22.297 76.571-116.16 101.404-150.384 106.58-2.13.322-4.145.487-6.055.519 5.597 3.296 12.95 5.131 22.743 3.653 34.224-5.175 128.087-30.009 150.384-106.579 5.261-24.841-12.944-35.709-29.458-35.916z" fill="#020403" opacity=".35"/><path d="m191.064 18.243s-7.588-18.233-7.588-18.233 12.198 6.082 12.198 6.082 14.074-2.071 14.074-2.071 7.128 6.908 7.128 6.908-24.74 7.698-24.74 7.698-1.072-.384-1.072-.384z" fill="#ff3a2f"/><path d="m187.329 6.091s6.444-.948 6.444-.948-10.297-5.133-10.297-5.133 2.185 5.249 2.185 5.249 1.668.832 1.668.832z" fill="#020403" opacity=".35"/><path d="m209.747 4.021s-7.244 1.065-7.244 1.065 6.029 5.843 6.029 5.843-18.16 5.652-18.16 5.652.692 1.662.692 1.662 1.072.384 1.072.384 24.74-7.698 24.74-7.698-7.129-6.908-7.129-6.908z" fill="#020403" opacity=".35"/><path d="m21.833 141.078s-11.774 15.866-11.774 15.866-1.039-13.569-1.039-13.569-9.018-10.974-9.018-10.974 2.28-9.656 2.28-9.656 19.336 17.215 19.336 17.215.215 1.118.215 1.118z" fill="#ff3a2f"/><path d="m20.383 138.861s-10.324 13.911-10.324 13.911-1.039-13.568-1.039-13.568-8.253-10.044-8.253-10.044-.765 3.241-.765 3.241 9.018 10.974 9.018 10.974 1.039 13.569 1.039 13.569 11.774-15.866 11.774-15.866-.215-1.118-.215-1.118-1.235-1.099-1.235-1.099z" fill="#020403" opacity=".35"/></g></svg>